<svg xmlns="http://www.w3.org/2000/svg" width="10" height="10.303" viewBox="0 0 10 10.303">
  <path id="icon-gas" d="M10.822,3.2c.119-.119.288-.249.459-.406l.159-.133-.433-.485-.141.132A3,3,0,0,0,9.733,3.85,6.986,6.986,0,0,0,9.57,5.829,4.479,4.479,0,0,0,9.8,7.393l.069.177a5.1,5.1,0,0,1,.44,1.961c0,1.034-.419,1.558-1.245,1.558-.751,0-1.157-.5-1.2-1.492a6.329,6.329,0,0,1,.231-1.554,12.825,12.825,0,0,0,.278-1.515,1.609,1.609,0,0,0-.24-1.255A1.43,1.43,0,0,0,7,4.923H6.882V1.906a.448.448,0,0,0-.449-.466H1.94a.492.492,0,0,0-.5.466v9.547H6.882V5.576H7a1.024,1.024,0,0,1,.639.135c.05.057.128.24.077.734a12.4,12.4,0,0,1-.266,1.444,6.766,6.766,0,0,0-.246,1.735c.064,1.345.741,2.118,1.855,2.118,1.188,0,1.9-.827,1.9-2.213a5.759,5.759,0,0,0-.486-2.2l-.066-.167a3.566,3.566,0,0,1-.178-1.226c.21,0,.463-.01.577-.01.261,0,.392-.153.448-.418a6.093,6.093,0,0,0-.018-.725v-.1C11.235,3.71,11.086,3.432,10.822,3.2ZM6.229,5.14H2.093V2.311H6.229Zm4.353-.36c0,.19.05.372.044.487l-.432.009a5.288,5.288,0,0,1,.16-1.259,1.648,1.648,0,0,1,.064-.3c.116.112.165.279.165.961v.1Z" transform="translate(-1.44 -1.44)" fill="#fff"/>
</svg>
