<svg id="icon-pemex" xmlns="http://www.w3.org/2000/svg" width="119.085" height="70.057" viewBox="0 0 119.085 70.057">
  <path id="path59" d="M1208.434,0c-3.693,5.162-8.3,11.626-12.407,17.366a.694.694,0,0,1-.793.309,6.648,6.648,0,0,1-1.153-.392,9.878,9.878,0,0,1-2.953-2.007c-.08-.08-.146-.191-.293-.2a8.675,8.675,0,0,0-.137,1.879,9.971,9.971,0,0,0,.341,2.029c.07.283.105.306.4.3.051,0,.1-.01.153-.013.28-.022.557-.051.838-.067q7.568-.443,15.382-.93c.459-.035.917-.029,1.373-.092a2.846,2.846,0,0,1,1.726.309,4.648,4.648,0,0,1,1.8,1.647,1.157,1.157,0,0,1,.143.3c.057.185.032.229-.166.229-.255,0-.51-.019-.765-.016-.341.006-.669-.08-1.01-.083,0,0-12.012-.447-18.545-.491-.29-.01-.577-.019-.866-.016-.185,0-.207.041-.15.22a1.372,1.372,0,0,0,.077.188,10.016,10.016,0,0,0,.522.962c.038.064.105.118.07.207a.4.4,0,0,1-.271-.01,6.794,6.794,0,0,1-1.873-.777,9.475,9.475,0,0,1-1.889-1.5c-.051-.054-.1-.127-.188-.105s-.073.124-.083.194a8.5,8.5,0,0,0-.089,1.14,8.988,8.988,0,0,0,.121,1.523c.032.191.048.2.249.2.162,0,.322-.01.484-.016,7.651-.3,16.214-.628,24.463-.959.943-.038,1.883-.083,2.825-.131a1.124,1.124,0,0,1,.522.086c.334.143.669.293.991.462a5.861,5.861,0,0,1,2.188,1.94c.041.061.1.115.1.185-.07.07-.14.045-.207.045-2.5-.053-5-.111-7.7-.137-.392-.006-.51-.092-.621-.465-.041-.137-.067-.28-.108-.417a1.222,1.222,0,0,0-1.137-.936,8.093,8.093,0,0,0-.965-.051c-1.651.053-3.367.069-5.157.147-.006.016-.01.035-.016.051.8.44,1.6.882,2.4,1.322,0,.016-.01.035-.013.051-.232,0-.465.01-.7,0-5.19-.17-10.315-.273-16.14-.58-.373.006-.749-.025-1.121-.032-.223,0-.261.048-.2.255a6.02,6.02,0,0,0,.914,1.838.485.485,0,0,0,.449.22c10.087-.251,30.349-.522,30.349-.522a.308.308,0,0,1,.344.233c.1.274.188.545.261.825.064.245.1.5.143.749a1.679,1.679,0,0,1,.067.4c-.013.223-.013.236-.229.229-8.931-.24-19.319-.469-29.9-.733a3.042,3.042,0,0,1-1.118-.223,16.186,16.186,0,0,1-1.545-.72,10.362,10.362,0,0,1-2.472-1.736c-.032-.032-.064-.086-.153-.054-.032.271-.07.554-.1.838a9.673,9.673,0,0,0,.548,3.794.216.216,0,0,0,.249.166c.076-.006.153,0,.229,0,10.169-.225,22.984-.436,34.443-.688.2-.01.236.025.239.236a11.7,11.7,0,0,1-.118,2.032c-.041.268-.057.277-.325.277-.366,0-.729-.013-1.1-.01-.723.006-1.443.016-2.166.035a.816.816,0,0,1-.583-.188,3.473,3.473,0,0,0-1.2-.656,7.493,7.493,0,0,0-3.275-.261,5.036,5.036,0,0,0-2.074.726.766.766,0,0,1-.506.118c-.538-.048-1.083-.041-1.625-.083-7.175-.257-14.527-.532-21.488-.809-.054,0-.131-.032-.159.035s.022.134.07.178a1.677,1.677,0,0,1,.252.248c.188.261.382.519.577.777s.2.261,0,.526c-.115.156-.233.312-.341.475-.064.1-.035.137.073.147.035,0,.067,0,.1,0,6.673-.21,13.826-.527,21.437-.771.054,0,.118-.038.178.038a2.544,2.544,0,0,1-.172.2c-.137.14-.277.274-.414.414a18.227,18.227,0,0,0-1.331,1.475.451.451,0,0,1-.385.2c-5.906-.238-13.161-.53-19.8-.835a.542.542,0,0,0-.519.248c-.436.615-.882,1.223-1.325,1.838a.326.326,0,0,0-.1.255q10.669-.387,21.344-.78a.456.456,0,0,1-.022.112c-.042.073-.086.146-.134.217a10.927,10.927,0,0,0-1.051,1.8.329.329,0,0,1-.36.223c-6.091-.42-13.151-.338-20.137-.777a.4.4,0,0,0-.376.162c-.475.65-.959,1.3-1.437,1.946-.038.051-.1.1-.035.194,7.256-.331,14.525-.6,21.816-.911a1.612,1.612,0,0,1-.051.175,13.8,13.8,0,0,0-.707,2.121c-.038.159-.083.175-.287.169-6.263-.246-14.072-.524-21.115-.844a.475.475,0,0,0-.472.226c-.436.605-.882,1.2-1.322,1.809a.393.393,0,0,0-.121.248c.233,0,.459.01.685,0,7.214-.274,14.238-.561,22.2-.86a.273.273,0,0,1,.2.029c-.01.048-.016.1-.026.147a10.247,10.247,0,0,0-.264,2.016v.026c-.019.185-.038.2-.217.207-.041,0-.086,0-.127,0-6.88-.247-15.3-.5-22.791-.777a.452.452,0,0,0-.44.242c-.134.223-.28.443-.417.669a4.147,4.147,0,0,0-.3.5c.086.08.185.054.274.057,7.913.159,15.709-.25,24.558-.137a2.025,2.025,0,0,1,.551.083,18.32,18.32,0,0,0,3.775.691,15.944,15.944,0,0,0,4.682-.315,15.406,15.406,0,0,0,9.432-6.393,15.663,15.663,0,0,0,2.733-8.256,14.966,14.966,0,0,0-.758-5.7,9.861,9.861,0,0,0-1.093-2.376Zm11.816,30.606c.161,0,.168.046.106.244a6.252,6.252,0,0,1-1,1.93,1.6,1.6,0,0,1-.159.2.155.155,0,0,1-.261,0,.939.939,0,0,1-.137-.182,18.1,18.1,0,0,0-1.306-1.876.475.475,0,0,1-.057-.083c-.032-.067-.019-.118.064-.121.118-.006.236-.006.357-.013l1.067-.048v.01c.414-.019.828-.041,1.245-.057l.078,0Z" transform="translate(-1148.24)" fill="#cb2a2f"/>
  <path id="path61" d="M798.952,2064.273c-.108.009-.137.083-.137.178,0,.678-.01,1.36.01,2.039a.681.681,0,0,0,.675.694c.1.01.2.01.306.01h13.149a.767.767,0,0,0,.847-.832c0-.188,0-.373,0-.561v-11.926c0-.357,0-.353.344-.353,1.316,0,2.634,0,3.95-.013a1.942,1.942,0,0,1,1.5.631,5.666,5.666,0,0,1,.688.914c1.883,3.043,3.279,6.292,4.982,9.138.188.312.382.625.573.933a1.184,1.184,0,0,0,.1.146c.089.1.147.1.226-.006a1.83,1.83,0,0,0,.131-.217c1.863-3.3,3.695-6.625,5.53-9.948.124-.223.255-.44.4-.653a1.921,1.921,0,0,1,1.707-.927c.8.009,1.6,0,2.4,0h1.452c.28,0,.284,0,.284.286v16.844c0,.344,0,.344-.354.344h-3.72c-.223-.006-.252-.035-.258-.249,0-.061,0-.118,0-.178v-9.454a.615.615,0,0,0-.025-.29c-.1.035-.131.127-.172.2q-2.561,4.635-5.119,9.269c-.076.14-.175.271-.261.407a.61.61,0,0,1-.513.283c-.1.007-.2.007-.306.01-.857,0-1.717-.022-2.574.01a1,1,0,0,1-1.022-.589l-5.017-9.123c-.064-.118-.118-.242-.182-.36-.013-.029-.022-.07-.067-.064a.094.094,0,0,0-.076.086,1.217,1.217,0,0,0,0,.153c0,2.813-.006,5.622.006,8.435a1.469,1.469,0,0,1-.694,1.28.931.931,0,0,1-.5.178c-.213.01-.424.026-.637.029-6.881,0-13.792.016-20.408.032a1.94,1.94,0,0,1-.774-.118,1.336,1.336,0,0,1-.87-1.236c-.01-.169,0-.341,0-.51v-13.913c0-.143.01-.29.006-.433a1.364,1.364,0,0,1,1.261-1.3c4.953-.046,10.342-.013,14.7-.006.471,0,.424-.038.424.424,0,1.07,0,2.141,0,3.211v.051c0,.325,0,.325-.315.325-3.6.011-7.525.015-10.754.022a3.031,3.031,0,0,0-.382.013.656.656,0,0,0-.6.669c-.013.612-.025,1.223-.035,1.835,0,.108-.019.226.092.3a.694.694,0,0,0,.3.022h10.088c.287,0,.287,0,.287.29v3.313a.565.565,0,0,1-.019.252h0a.5.5,0,0,1-.226.019H799.182A.564.564,0,0,1,798.952,2064.273Z" transform="translate(-774.22 -2001.045)" fill="#008b52"/>
  <path id="path63" d="M2664.215,2067.557a.871.871,0,0,0,.742.354c.806-.013,1.615,0,2.421-.006.284,0,.258,0,.261.239.006,1.105.013,2.207.019,3.313,0,.249-.01.258-.258.258h-4.842c-.169,0-.338-.022-.507-.035a1.166,1.166,0,0,1-.822-.456c-1.2-1.449-2.453-2.957-3.561-4.294-.048-.057-.083-.131-.182-.156-.118.121-.245.245-.36.379-.958,1.126-1.87,2.276-2.723,3.354-.166.21-.354.408-.516.621a1.435,1.435,0,0,1-1.16.535c-.143.006-.29,0-.433,0h-21.555a3.222,3.222,0,0,1-.854-.1,1.564,1.564,0,0,1-1.191-1.446c0-.061,0-.118,0-.178,0-4.644.009-9.292-.013-13.936a1.812,1.812,0,0,1,.252-1,1.719,1.719,0,0,1,1.519-.873c5,.008,9.6.016,14.343.016h.127c.207.006.213.013.217.216,0,.153,0,.306,0,.459,0,.806-.013,1.615,0,2.421,0,.226.038.455.032.685,0,.058.016.121-.029.169a3.744,3.744,0,0,1-.8.044q-5.179,0-10.355,0c-.124,0-.258-.042-.366.057-.083.042-.163.086-.245.127a.928.928,0,0,0-.544.8c-.035.567-.022,1.137-.019,1.707,0,.169.048.2.252.2,3.461.007,6.884-.018,10.088-.019.274,0,.28.006.28.29v3.44c0,.112-.041.179-.166.169-.067-.006-.137,0-.2,0q-4.916,0-9.833-.013c-.427,0-.382-.01-.382.392,0,.535.01,1.071,0,1.605a.887.887,0,0,0,.79.934,3.749,3.749,0,0,0,.532.038c5.908.044,16.328-.042,16.328-.042a1.06,1.06,0,0,0,.885-.408c1.1-1.439,2.325-2.577,3.313-3.9.249-.334.252-.5-.022-.812q-1.763-2.007-3.536-4.007c-.038-.044-.086-.083-.124-.127a1.2,1.2,0,0,0-.994-.4c-.694.029-1.392.01-2.089.01-.064,0-.137.022-.188-.044a4.828,4.828,0,0,1,.831-.022c.612-.006,1.223,0,1.621,0-.675.019-1.567-.035-2.456.022-.105-.08-.08-.2-.08-.3,0-1.137,0-2.278.006-3.415,0-.258,0-.261.252-.261h4.077a1.93,1.93,0,0,1,1.14.379,2.9,2.9,0,0,1,.522.484c1.317,1.511,2.526,3.039,3.749,4.5.048.058.1.118.15.175.156.169.21.172.366-.01,1.233-1.439,2.472-2.907,3.638-4.291a5.008,5.008,0,0,1,.9-.825,1.823,1.823,0,0,1,1.093-.363h3.848c.236,0,.258.022.258.268,0,1.188,0,2.379,0,3.567a.382.382,0,0,1-.261.077h-2.233c-.025,0-.054,0-.054,0,.7,0,1.43,0,2.156,0,.089,0,.185-.032.271.032,0,.029.086.057.007.089a.423.423,0,0,1-.127,0c-.729,0-1.459,0-2.192-.006a.856.856,0,0,0-.723.344c-1.234,1.439-2.558,3.02-3.647,4.342-.217.264-.217.322.006.592C2662.094,2064.964,2662.959,2066.033,2664.215,2067.557Z" transform="translate(-2561.52 -2001.656)" fill="#008b52"/>
  <path id="path65" d="M.024,2063.494c0-2.9,0-5.568-.01-8.253,0-.1-.006-.2-.013-.306s.032-.156.14-.156c.188,0,.373-.009.561-.009,5.393,0,10.2,0,15.159-.016a1.705,1.705,0,0,1,.815.156,1.452,1.452,0,0,1,.847,1.268c.006.076,0,.153,0,.229v9.119a2.431,2.431,0,0,1-.118.854,1.486,1.486,0,0,1-.526.669,1.7,1.7,0,0,1-1.073.315q-4.969,0-9.935,0H5.8c-.242-.006-.258-.019-.258-.268v-3.618c0-.3,0-.3.3-.3q3.158,0,6.32.006c.118,0,.239,0,.357,0a.525.525,0,0,0,.564-.583q.01-1.567,0-3.134a.607.607,0,0,0-.688-.666c-2.826,0-4.992,0-7.747,0-.322,0-.322,0-.322.325q0,4.8.016,9.6c0,1.105.006,2.207.01,3.313,0,.217,0,.219-.22.219H.253c-.242,0-.242,0-.242-.258v-8.508Z" transform="translate(0 -2002.257)" fill="#008b52"/>
  <path id="path67" d="M4328.324,2402.85a4.308,4.308,0,1,0,.051,8.616,4.309,4.309,0,0,0-.051-8.616Zm-.026.7a3.592,3.592,0,1,1-3.609,3.635A3.594,3.594,0,0,1,4328.3,2403.554Z" transform="translate(-4213.513 -2341.46)" fill="#626f77"/>
  <path id="path69" d="M2822.05,2201.806a.1.1,0,0,1,.111-.108h.229q5.4,0,10.8,0c.163,0,.313,0,.366-.2.007.07.01.14.016.21-.013.06-.054.079-.111.083s-.137,0-.2,0h-10.187C2822.729,2201.786,2822.388,2201.8,2822.05,2201.806Z" transform="translate(-2749.95 -2145.251)" fill="#077d4e"/>
  <path id="path71" d="M977.551,2326.56c0-1.172,0-2.344,0-3.517,0-.338.016-.312-.322-.312q-5.017,0-10.037,0c-.1,0-.2.038-.29-.048.092,0,.188-.006.28-.006h10.085c.369,0,.344-.026.344.344,0,1.045,0,2.089,0,3.131C977.6,2326.286,977.646,2326.433,977.551,2326.56Z" transform="translate(-942.196 -2263.332)" fill="#198d5d"/>
  <path id="path73" d="M968.023,2474.426c.086,0,.169-.01.255-.01h10.139c.076,0,.153,0,.229.006-.073.064-.162.032-.245.032q-5.079,0-10.158,0C968.17,2474.458,968.093,2474.48,968.023,2474.426Z" transform="translate(-943.291 -2411.198)" fill="#198d5d"/>
  <path id="path75" d="M4053.235,2207.339h-2.513c.08-.08.166-.057.249-.057.586,0,1.172,0,1.755,0a2,2,0,0,0,.631-.051C4053.395,2207.352,4053.3,2207.327,4053.235,2207.339Z" transform="translate(-3947.231 -2150.839)" fill="#077e4e"/>
  <path id="path79" d="M1870.764,664.511c0,.057-.029.083-.073.086-.01,0-.026-.019-.026-.032a.089.089,0,0,1,.067-.089C1870.754,664.47,1870.764,664.5,1870.764,664.511Z" transform="translate(-1822.872 -647.499)" fill="#dd7679"/>
  <path id="path81" d="M3943.38,2483.985V2484c0-.006,0-.009,0-.016S3943.38,2483.985,3943.38,2483.985Z" transform="translate(-3842.631 -2420.518)" fill="#008b52"/>
  <path id="path85" d="M3374.49,2209.21c.051-.064.124-.048.188-.048h2.446a.122.122,0,0,1,.127.048c-.93,0-1.844,0-2.762,0Z" transform="translate(-3288.275 -2152.719)" fill="#097a4d"/>
  <path id="path89" d="M4417.409,2482.686q-.453,0-.9,0c-.214,0-.229.022-.232.236-.022,1.392.047,2.781-.035,4.173a.225.225,0,0,0,.242.264,2,2,0,0,0,.3-.022c.242-.025.249-.025.249-.277,0-.357,0-.714,0-1.07,0-.153,0-.306,0-.459,0-.108.045-.156.152-.153s.22,0,.332,0a.911.911,0,0,1,.771.37,5.941,5.941,0,0,1,.7,1.086,3.144,3.144,0,0,0,.159.29.448.448,0,0,0,.328.223,3.87,3.87,0,0,0,.7-.038c-.153-.251-.277-.462-.411-.666a4.122,4.122,0,0,0-1.115-1.363.594.594,0,0,1,.22-.1,1.392,1.392,0,0,0,.592-.334,1.159,1.159,0,0,0,.357-1.182,1.111,1.111,0,0,0-.857-.879,2.842,2.842,0,0,0-.653-.092Q4417.861,2482.687,4417.409,2482.686Zm0,.638c.139,0,.287,0,.478,0,.108.006.3.01.481.022a.849.849,0,0,1,.411.118.609.609,0,0,1,.3.6.6.6,0,0,1-.375.532,1.6,1.6,0,0,1-.57.108c-.287.016-.577.013-.867.01-.187,0-.22-.032-.22-.226,0-.315-.006-.627,0-.943,0-.191.032-.217.226-.223Z" transform="translate(-4303.408 -2419.256)" fill="#626f77"/>
</svg>
