<svg xmlns="http://www.w3.org/2000/svg" width="10" height="10.003" viewBox="0 0 10 10.003">
  <path id="icon-config" d="M13.674,9.5A1.287,1.287,0,0,1,14.5,8.3a5.1,5.1,0,0,0-.617-1.487,1.3,1.3,0,0,1-.523.112,1.284,1.284,0,0,1-1.174-1.807A5.085,5.085,0,0,0,10.7,4.5a1.286,1.286,0,0,1-2.4,0,5.1,5.1,0,0,0-1.487.617A1.284,1.284,0,0,1,5.638,6.924a1.262,1.262,0,0,1-.523-.112A5.213,5.213,0,0,0,4.5,8.3a1.286,1.286,0,0,1,0,2.4A5.1,5.1,0,0,0,5.12,12.19a1.284,1.284,0,0,1,1.7,1.7A5.13,5.13,0,0,0,8.3,14.5a1.283,1.283,0,0,1,2.4,0,5.1,5.1,0,0,0,1.487-.617,1.286,1.286,0,0,1,1.7-1.7A5.13,5.13,0,0,0,14.5,10.7,1.293,1.293,0,0,1,13.674,9.5ZM9.523,11.581A2.083,2.083,0,1,1,11.607,9.5,2.083,2.083,0,0,1,9.523,11.581Z" transform="translate(-4.5 -4.5)" fill="#fff"/>
</svg>
