<svg xmlns="http://www.w3.org/2000/svg" width="17.832" height="17.507" viewBox="0 0 17.832 17.507">
  <path id="icon-excel" d="M17.5,2.471H11.526V3.576h1.761V5.325H11.526v.557h1.761V7.634H11.526v.573h1.761V9.863H11.526v.664h1.761v1.66H11.526v.664h1.761v1.67H11.526v1.218H17.5c.094-.028.173-.14.236-.333a1.629,1.629,0,0,0,.1-.473V2.673c0-.1-.033-.152-.1-.172A.817.817,0,0,0,17.5,2.471Zm-.775,12.047H13.859V12.85h2.866v1.67Zm0-2.332H13.859V10.526h2.866Zm0-2.324H13.859V8.213h2.866v1.65Zm0-2.229H13.859V5.884h2.866v1.75h0Zm0-2.317H13.859V3.577h2.866V5.316ZM0,2.195V16.016l10.521,1.82V.329L0,2.2ZM6.236,12.65q-.06-.163-.563-1.384c-.334-.814-.535-1.288-.594-1.424H5.061L3.932,12.528l-1.508-.1L4.213,9.083,2.575,5.739l1.538-.081L5.129,8.274h.02L6.3,5.539l1.589-.1L5.994,9.057l1.95,3.691-1.708-.1Z" transform="translate(0 -0.328)" fill="#fff"/>
</svg>
