<svg xmlns="http://www.w3.org/2000/svg" width="279" height="91.142" viewBox="0 0 279 91.142">
  <g id="logo" transform="translate(-40.578 -147.921)">
    <g id="Group_1" data-name="Group 1" transform="translate(141.294 176.719)">
      <path id="Path_1" data-name="Path 1" d="M189.17,195.126l-.546,3.232a17.812,17.812,0,0,1-18.347,15.706q-7.444,0-11.472-4.917-4.03-4.984-2.868-12.155a19.078,19.078,0,0,1,6.465-11.608,18.266,18.266,0,0,1,12.383-4.553c6.237,0,10.926,2.823,13.339,7.512l-7.467,4.006q-1.981-3.552-6.692-3.551a9.689,9.689,0,0,0-6.51,2.412,10.35,10.35,0,0,0-3.414,6.237,7.864,7.864,0,0,0,1.229,6.373,6.724,6.724,0,0,0,5.737,2.5c3.915,0,6.646-1.411,8.239-4.189h-7.375l1.229-7.011Z" transform="translate(-155.677 -180.831)" fill="#fff"/>
      <path id="Path_2" data-name="Path 2" d="M212.728,213.479l-.5-4.6H201.62l-2.186,4.6h-8.967l16.116-31.868h9.925l4.917,31.868Zm-7.739-11.609h6.464l-1.183-11.017Z" transform="translate(-160.025 -180.928)" fill="#fff"/>
      <path id="Path_3" data-name="Path 3" d="M254.758,181.611l-1.047,6.283-14.2,17.709h11.381l-1.366,7.876h-22.17l1.092-6.283,14.25-17.709H231.767l1.411-7.876Z" transform="translate(-164.634 -180.928)" fill="#fff"/>
      <path id="Path_4" data-name="Path 4" d="M274.312,181.611a9.5,9.5,0,0,1,7.6,3.278,9.9,9.9,0,0,1,2.094,8.331,11.863,11.863,0,0,1-4.233,7.785,13.621,13.621,0,0,1-9.059,2.913h-4.189l-1.684,9.561h-8.148l5.6-31.868Zm-1.366,7.785h-3.87l-1.183,6.783h3.96a3.962,3.962,0,0,0,4.052-3.414C276.315,190.717,275.131,189.4,272.946,189.4Z" transform="translate(-168.301 -180.928)" fill="#fff"/>
      <path id="Path_5" data-name="Path 5" d="M308.479,201.916l4.371,11.563h-8.195l-3.733-10.289h-3.46l-1.821,10.289h-8.149l5.646-31.868h12.474a9.809,9.809,0,0,1,7.693,3.37,9.163,9.163,0,0,1,2.095,8.1A11.71,11.71,0,0,1,308.479,201.916Zm-8.559-12.793-1.274,7.147h4.688a3.931,3.931,0,0,0,3.916-3.551c.364-2.14-.774-3.6-2.959-3.6Z" transform="translate(-172.149 -180.928)" fill="#fff"/>
      <path id="Path_6" data-name="Path 6" d="M321.055,196.947a19.191,19.191,0,0,1,6.419-11.472,18.522,18.522,0,0,1,12.7-4.644c4.826,0,8.559,1.684,11.245,5.1a14.435,14.435,0,0,1,2.913,11.928,19.456,19.456,0,0,1-6.374,11.564,18.172,18.172,0,0,1-12.656,4.643A14.046,14.046,0,0,1,321.055,196.947Zm23.855-5.69a6.9,6.9,0,0,0-5.691-2.458,9.786,9.786,0,0,0-6.555,2.458,10.376,10.376,0,0,0-3.505,6.192,7.473,7.473,0,0,0,1.229,6.236,6.911,6.911,0,0,0,5.645,2.412,10.179,10.179,0,0,0,6.6-2.412,10.073,10.073,0,0,0,3.6-6.236A7.273,7.273,0,0,0,344.911,191.256Z" transform="translate(-176.304 -180.831)" fill="#fff"/>
    </g>
    <g id="Group_2" data-name="Group 2" transform="translate(40.578 147.921)">
      <path id="Path_7" data-name="Path 7" d="M85.164,147.921,52.312,204.827,40.578,186.641l22.293-38.719Z" transform="translate(-40.578 -147.921)" fill="#eb691c"/>
      <path id="Path_8" data-name="Path 8" d="M119.693,183.874h-25.3L72.174,222.007,61.43,240.99,49.294,220.834l33.439-57.492h23.254Z" transform="translate(-41.668 -149.848)" fill="#eb691c"/>
      <path id="Path_9" data-name="Path 9" d="M86.226,206.92h44.519l-22.259,39.516H63.163l11.2-19.758h22.6Z" transform="translate(-43.401 -155.294)" fill="#f9c003"/>
    </g>
  </g>
</svg>
